<svg width="24" height="24" viewBox="0 0 24 24" fill="none" xmlns="http://www.w3.org/2000/svg">
    <circle cx="12" cy="12" r="12" fill="#050505"/>
    <path fill-rule="evenodd" clip-rule="evenodd" d="M10.5171 13.8753C10.7124 14.0706 11.0289 14.0706 11.2242 13.8753L17.021 8.07858C17.2162 7.88331 17.5328 7.88331 17.7281 8.07858L18.4352 8.78568C18.6305 8.98094 18.6305 9.29753 18.4352 9.49279L11.2227 16.7053C11.2218 16.7062 11.2208 16.7072 11.2199 16.7081L11.1913 16.7367C11.0142 16.9137 10.7271 16.9137 10.55 16.7367C10.5382 16.7268 10.5267 16.7164 10.5156 16.7053L9.45569 15.6454C9.45527 15.645 9.45527 15.6443 9.45569 15.6439C9.45611 15.6434 9.45611 15.6428 9.45569 15.6424L5.56735 11.754C5.37208 11.5587 5.37208 11.2422 5.56735 11.0469L6.27445 10.3398C6.46971 10.1445 6.7863 10.1445 6.98156 10.3398L10.5171 13.8753Z" fill="white"/>
</svg>
